HIERARCHY
ROOT Hips
{
    OFFSET 0.000000 0.000000 0.000000
    CHANNELS 6 Xposition Yposition Zposition Zrotation Xrotation Yrotation
    JOINT Spine
    {
        OFFSET -0.000000 8.339920 0.000000
        CHANNELS 3 Zrotation Xrotation Yrotation
        JOINT Spine1
        {
            OFFSET -0.000000 25.214485 0.000000
            CHANNELS 3 Zrotation Xrotation Yrotation
            JOINT Neck
            {
                OFFSET -0.000000 25.110935 2.282812
                CHANNELS 3 Zrotation Xrotation Yrotation
                JOINT Head
                {
                    OFFSET -0.000000 14.238888 -2.034127
                    CHANNELS 3 Zrotation Xrotation Yrotation
                    End Site
                    {
                        OFFSET -0.000000 25.426584 0.000000
                    }
                }
            }
            JOINT LeftShoulder
            {
                OFFSET 4.025024 23.158985 -0.185822
                CHANNELS 3 Zrotation Xrotation Yrotation
                JOINT LeftArm
                {
                    OFFSET 11.674057 0.000000 0.000000
                    CHANNELS 3 Zrotation Xrotation Yrotation
                    JOINT LeftForeArm
                    {
                        OFFSET 31.688633 0.000000 0.000000
                        CHANNELS 3 Zrotation Xrotation Yrotation
                        JOINT LeftHand
                        {
                            OFFSET 29.704493 0.000000 0.000000
                            CHANNELS 3 Zrotation Xrotation Yrotation
                            End Site
                            {
                                OFFSET 15.255952 0.000000 0.000000
                            }
                        }
                    }
                }
            }
            JOINT RightShoulder
            {
                OFFSET -4.099539 23.158985 -0.185822
                CHANNELS 3 Zrotation Xrotation Yrotation
                JOINT RightArm
                {
                    OFFSET -11.674057 0.000000 0.000000
                    CHANNELS 3 Zrotation Xrotation Yrotation
                    JOINT RightForeArm
                    {
                        OFFSET -31.688633 0.000000 0.000000
                        CHANNELS 3 Zrotation Xrotation Yrotation
                        JOINT RightHand
                        {
                            OFFSET -29.704493 0.000000 0.000000
                            CHANNELS 3 Zrotation Xrotation Yrotation
                            End Site
                            {
                                OFFSET -15.255952 0.000000 0.000000
                            }
                        }
                    }
                }
            }
        }
    }
    JOINT LeftUpLeg
    {
        OFFSET 10.170634 0.000000 0.000000
        CHANNELS 3 Zrotation Xrotation Yrotation
        JOINT LeftLeg
        {
            OFFSET -0.000000 -41.352962 0.000000
            CHANNELS 3 Zrotation Xrotation Yrotation
            JOINT LeftFoot
            {
                OFFSET -0.000000 -47.535004 0.000000
                CHANNELS 3 Zrotation Xrotation Yrotation
                JOINT LeftToeBase
                {
                    OFFSET -0.000000 -6.610912 15.255952
                    CHANNELS 3 Zrotation Xrotation Yrotation
                    End Site
                    {
                        OFFSET -0.000000 0.000000 4.068254
                    }
                }
            }
        }
    }
    JOINT RightUpLeg
    {
        OFFSET -10.170634 0.000000 0.000000
        CHANNELS 3 Zrotation Xrotation Yrotation
        JOINT RightLeg
        {
            OFFSET -0.000000 -41.352962 0.000000
            CHANNELS 3 Zrotation Xrotation Yrotation
            JOINT RightFoot
            {
                OFFSET -0.000000 -47.535004 0.000000
                CHANNELS 3 Zrotation Xrotation Yrotation
                JOINT RightToeBase
                {
                    OFFSET -0.000000 -6.610912 15.255952
                    CHANNELS 3 Zrotation Xrotation Yrotation
                    End Site
                    {
                        OFFSET -0.000000 0.000000 4.068254
                    }
                }
            }
        }
    }
}
MOTION
Frames:    4
Frame Time:    0.008333
-230.969910    94.940063    47.938370    -1.541353    -1.425297    86.860901    -0.017432    -5.904371    -1.354417    4.983598    1.779809    -1.431010    -10.045907    26.791725    -3.818231    9.160295    -2.443279    -3.509656    12.098756    0.487301    0.673964    -23.678701    -12.700832    6.648978    6.337723    -22.791994    2.256531    0.191176    -22.903927    2.087368    -22.848188    0.029112    -7.701792    29.030916    -2.051378    2.751423    -3.981277    -13.140458    -0.151546    -17.922077    -13.158187    0.082000    1.827689    7.856129    -0.503101    -0.270325    -5.624657    3.562172    0.779168    -4.088935    9.966928    0.000000    0.000000    0.000000    4.003624    6.583729    6.760458    -2.725115    -3.206370    -1.168105    -1.850808    -4.133853    -10.555578    0.000000    0.000000    0.000000    
-230.969696    94.941269    47.945248    -1.531006    -1.426662    86.863037    -0.019827    -5.896591    -1.352693    4.995619    1.792390    -1.429865    -10.035531    26.788826    -3.834137    9.156713    -2.434404    -3.526102    12.099268    0.490534    0.674054    -23.691139    -12.714662    6.637952    6.323222    -22.801153    2.263819    0.266956    -22.911877    2.106252    -22.875780    0.003019    -7.704942    29.204361    -1.772846    2.758959    -4.286819    -13.237151    -0.180195    -17.752707    -13.249920    0.040789    1.829116    7.863861    -0.519858    -0.267953    -5.623145    3.582699    0.791811    -4.078859    9.972771    0.000000    0.000000    0.000000    4.016746    6.607431    6.692952    -2.740551    -3.239567    -1.177181    -1.845319    -4.114550    -10.469299    0.000000    0.000000    0.000000    
-230.973267    94.938927    47.951740    -1.536662    -1.422298    86.852776    -0.027440    -5.898838    -1.348737    5.011245    1.796620    -1.425963    -10.020257    26.820103    -3.836733    9.137769    -2.474261    -3.530371    12.092876    0.482288    0.662751    -23.693245    -12.712125    6.661881    6.305418    -22.823893    2.264453    0.303820    -22.933628    2.124074    -22.880560    -0.001573    -7.706743    29.243254    -2.254540    2.819089    -4.285854    -12.994473    -0.223274    -17.782707    -13.023126    0.134485    1.832315    7.862147    -0.489434    -0.285745    -5.639249    3.552050    0.768263    -4.086270    10.011236    0.000000    0.000000    0.000000    4.013484    6.592839    6.760441    -2.735943    -3.224558    -1.189684    -1.859737    -4.128634    -10.525743    0.000000    0.000000    0.000000    
-230.973999    94.937653    47.956909    -1.532392    -1.425067    86.848351    -0.018886    -5.898945    -1.352466    5.018366    1.815203    -1.431064    -10.055012    26.802956    -3.809256    9.184185    -2.448848    -3.497939    12.082114    0.483648    0.667775    -23.694195    -12.721124    6.671722    6.296686    -22.844021    2.275989    0.373753    -22.952913    2.146563    -22.899542    -0.020475    -7.699360    29.278292    -2.239491    2.832474    -4.340053    -13.045760    -0.181245    -17.703888    -13.037331    -0.099662    1.838004    7.860333    -0.480763    -0.285745    -5.639249    3.552050    0.815138    -4.074053    9.992085    0.000000    0.000000    0.000000    4.019867    6.604215    6.786532    -2.739456    -3.240486    -1.206112    -1.872070    -4.116893    -10.530645    0.000000    0.000000    0.000000    
